<svg width="64" height="120" viewBox="0 0 64 120" fill="none" xmlns="http://www.w3.org/2000/svg">
<path fill-rule="evenodd" clip-rule="evenodd" d="M42.213 83.7666C42.5811 84.6533 42.3516 85.6757 41.6398 86.32C41.165 86.7488 40.8933 87.3581 40.8914 87.9978C40.8895 88.6375 41.1576 89.2484 41.6298 89.68C42.3398 90.3231 42.5697 91.3428 42.2043 92.2284C41.8388 93.114 40.9567 93.6748 39.9998 93.63C39.3628 93.6013 38.7432 93.8417 38.2923 94.2926C37.8415 94.7434 37.601 95.3631 37.6298 96C37.6506 96.9338 37.0974 97.785 36.2357 98.1452C35.374 98.5053 34.3796 98.3009 33.7298 97.63C33.2995 97.1566 32.6895 96.8866 32.0498 96.8866C31.41 96.8866 30.8 97.1566 30.3698 97.63C29.7356 98.3829 28.6885 98.6413 27.7769 98.2698C26.8654 97.8983 26.2971 96.9817 26.3698 96C26.3985 95.3631 26.158 94.7434 25.7072 94.2926C25.2564 93.8417 24.6367 93.6013 23.9998 93.63C23.066 93.6509 22.2148 93.0977 21.8546 92.2359C21.4945 91.3742 21.6989 90.3798 22.3698 89.73C22.8432 89.2998 23.1132 88.6897 23.1132 88.05C23.1132 87.4103 22.8432 86.8002 22.3698 86.37C21.6169 85.7359 21.3585 84.6888 21.73 83.7772C22.1014 82.8656 23.0181 82.2973 23.9998 82.37C24.6367 82.3987 25.2564 82.1583 25.7072 81.7075C26.158 81.2566 26.3985 80.637 26.3698 80C26.325 79.043 26.8858 78.161 27.7714 77.7955C28.657 77.4301 29.6766 77.6599 30.3198 78.37C30.75 78.8435 31.36 79.1134 31.9998 79.1134C32.6395 79.1134 33.2495 78.8435 33.6798 78.37C34.3229 77.6599 35.3426 77.4301 36.2282 77.7955C37.1137 78.161 37.6746 79.043 37.6298 80C37.601 80.637 37.8415 81.2566 38.2923 81.7075C38.7432 82.1583 39.3628 82.3987 39.9998 82.37C40.9586 82.3206 41.8448 82.8799 42.213 83.7666ZM30.1598 85.75C30.1598 85.3358 29.824 85 29.4098 85C28.9978 85.0054 28.6652 85.3381 28.6598 85.75C28.6598 86.1642 28.9956 86.5 29.4098 86.5C29.824 86.5 30.1598 86.1642 30.1598 85.75ZM34.6798 91C34.2656 91 33.9298 90.6642 33.9298 90.25C33.9298 89.8358 34.2656 89.5 34.6798 89.5C35.094 89.5 35.4298 89.8358 35.4298 90.25C35.4244 90.662 35.0917 90.9946 34.6798 91ZM29.6498 91.41L35.4098 85.64V85.65C35.6851 85.3545 35.677 84.894 35.3914 84.6084C35.1058 84.3228 34.6453 84.3147 34.3498 84.59L28.5898 90.35C28.4468 90.4893 28.3662 90.6804 28.3662 90.88C28.3662 91.0796 28.4468 91.2707 28.5898 91.41C28.7276 91.5547 28.92 91.6345 29.1198 91.63C29.3188 91.631 29.5099 91.5516 29.6498 91.41Z" fill="black"/>
<path d="M34.801 28.94L29.031 34.71C28.7385 35.0028 28.7385 35.4772 29.031 35.77C29.1708 35.9116 29.3619 35.9909 29.561 35.99C29.7602 35.9921 29.9517 35.9126 30.091 35.77L35.861 30C36.0616 29.813 36.1442 29.5314 36.0763 29.2657C36.0085 29 35.801 28.7925 35.5352 28.7246C35.2695 28.6567 34.9879 28.7393 34.801 28.94Z" fill="black"/>
<path d="M30.601 30.1C30.601 30.5142 30.2652 30.85 29.851 30.85C29.4367 30.85 29.101 30.5142 29.101 30.1C29.101 29.6858 29.4367 29.35 29.851 29.35C30.2652 29.35 30.601 29.6858 30.601 30.1Z" fill="black"/>
<path d="M35.881 34.61C35.881 35.0242 35.5452 35.36 35.131 35.36C34.7167 35.36 34.381 35.0242 34.381 34.61C34.381 34.1958 34.7167 33.86 35.131 33.86C35.5452 33.86 35.881 34.1958 35.881 34.61Z" fill="black"/>
<path fill-rule="evenodd" clip-rule="evenodd" d="M42.6397 28.2213C42.97 29.0765 42.7535 30.0464 42.0908 30.6799C41.6112 31.1086 41.337 31.7215 41.337 32.3649C41.337 33.0083 41.6112 33.6211 42.0908 34.0499C42.7828 34.6786 43.0185 35.6672 42.6847 36.5405C42.3508 37.4138 41.5157 37.9931 40.5808 37.9999H40.3308C39.7101 38.0046 39.1181 38.2622 38.6916 38.7133C38.265 39.1644 38.0409 39.7698 38.0709 40.3899C38.104 41.0133 37.8779 41.6226 37.446 42.0734C37.0142 42.5242 36.4151 42.7763 35.7908 42.7699C35.1554 42.7701 34.5506 42.4969 34.1308 42.0199C33.7004 41.5431 33.0882 41.271 32.4458 41.271C31.8035 41.271 31.1913 41.5431 30.7608 42.0199C30.3411 42.4969 29.7363 42.7701 29.1008 42.7699C28.4729 42.7766 27.8705 42.5219 27.438 42.0666C27.0055 41.6113 26.7819 40.9966 26.8208 40.3699C26.848 39.7515 26.6226 39.1487 26.1964 38.6998C25.7702 38.251 25.1798 37.9947 24.5608 37.9899H24.3108C23.4165 37.9474 22.6306 37.3832 22.3045 36.5494C21.9783 35.7156 22.1727 34.7679 22.8008 34.1299C23.2772 33.7013 23.5492 33.0906 23.5492 32.4499C23.5492 31.8091 23.2772 31.1985 22.8008 30.7699C22.0696 30.1489 21.8076 29.1353 22.1464 28.2378C22.4852 27.3403 23.3517 26.7527 24.3108 26.7699H24.5608C25.1881 26.7685 25.7868 26.5076 26.2149 26.0492C26.6429 25.5908 26.8623 24.9757 26.8208 24.3499C26.799 23.7333 27.0302 23.1345 27.4608 22.6926C27.8913 22.2507 28.4839 22.004 29.1008 22.0099C29.7387 22.0082 30.3454 22.2859 30.7608 22.7699C31.1955 23.2426 31.8087 23.5111 32.4508 23.5099C33.0895 23.5083 33.6985 23.24 34.1308 22.7699C34.5445 22.2822 35.1514 22.0006 35.7908 21.9999C36.4169 21.9933 37.0177 22.2467 37.4498 22.6998C37.882 23.1528 38.1069 23.7648 38.0709 24.3899C38.0408 25.009 38.2653 25.6135 38.6921 26.063C39.1189 26.5125 39.711 26.7679 40.3308 26.7699H40.5808C41.4973 26.7936 42.3095 27.3662 42.6397 28.2213ZM40.9909 35.8799C41.0733 35.7057 41.0234 35.4976 40.8708 35.3799V35.3199C40.0328 34.5474 39.5561 33.4596 39.5561 32.3199C39.5561 31.1801 40.0328 30.0923 40.8708 29.3199C41.0234 29.2021 41.0733 28.994 40.9909 28.8199C40.9334 28.6432 40.7666 28.5252 40.5809 28.5299H40.3309C39.2152 28.5277 38.1492 28.0687 37.3808 27.2599C36.6193 26.4512 36.2155 25.3698 36.2608 24.2599C36.2776 24.1405 36.2411 24.0198 36.1608 23.9299C36.064 23.829 35.9307 23.7713 35.7908 23.7699C35.6483 23.7567 35.5089 23.817 35.4208 23.9299C34.6528 24.7773 33.5645 25.2634 32.4208 25.2699C31.2775 25.2622 30.1896 24.7762 29.4208 23.9299C29.3434 23.8315 29.226 23.7728 29.1008 23.7699C28.961 23.7713 28.8277 23.829 28.7308 23.9299C28.6506 24.0198 28.6141 24.1405 28.6308 24.2599C28.6969 25.3812 28.2978 26.4801 27.5276 27.2977C26.7573 28.1152 25.6841 28.5791 24.5608 28.5799H24.3408C24.1452 28.5648 23.9642 28.6841 23.9008 28.8699C23.8184 29.044 23.8683 29.2521 24.0208 29.3699C24.8662 30.1394 25.3519 31.2268 25.3608 32.3699C25.3544 33.5135 24.8682 34.6019 24.0208 35.3699C23.8683 35.4876 23.8184 35.6957 23.9008 35.8699C23.9516 36.0527 24.1212 36.1768 24.3108 36.1699H24.5608C25.6758 36.1741 26.7408 36.6334 27.5091 37.4414C28.2775 38.2494 28.6827 39.3361 28.6308 40.4499C28.6128 40.5663 28.6497 40.6845 28.7308 40.7699C28.8389 40.8776 28.9888 40.9325 29.1408 40.9199C29.2638 40.9168 29.3798 40.8624 29.4608 40.7699C30.231 39.9095 31.3311 39.4178 32.4858 39.4178C33.6406 39.4178 34.7407 39.9095 35.5108 40.7699C35.5806 40.8567 35.6806 40.9139 35.7908 40.9299C35.9307 40.9285 36.064 40.8708 36.1608 40.7699C36.242 40.6845 36.2789 40.5663 36.2608 40.4499C36.22 39.3407 36.6231 38.261 37.3808 37.4499C38.1519 36.6449 39.2162 36.1867 40.3309 36.1799H40.5508C40.7503 36.1975 40.9344 36.072 40.9909 35.8799Z" fill="black"/>
</svg>
