<svg width="65" height="120" viewBox="0 0 65 120" fill="none" xmlns="http://www.w3.org/2000/svg">
<path d="M32.18 87.35C33.8176 87.3502 35.1528 86.0373 35.18 84.4V83.28C35.1801 82.6153 34.9134 81.9783 34.4396 81.5121C33.9658 81.0458 33.3247 80.7893 32.66 80.8H31.71C30.3443 80.8055 29.24 81.9142 29.24 83.28V84.4C29.2666 86.0142 30.5659 87.3179 32.18 87.35Z" fill="black"/>
<path d="M42.78 92.51L42.66 91C42.5303 90.2417 41.8793 89.683 41.11 89.67H36.79C36.7238 89.6597 36.6563 89.6597 36.59 89.67C36.2068 89.2395 35.6564 88.9953 35.08 89H29.29C28.6797 88.9973 28.1015 89.2735 27.72 89.75C27.5567 89.6903 27.384 89.6598 27.21 89.66H22.89C22.1176 89.6739 21.4655 90.2377 21.34 91L21.22 92.56C21.1195 93.0384 21.235 93.5368 21.5357 93.9222C21.8363 94.3077 22.2916 94.541 22.78 94.56H27.33C27.4197 94.5703 27.5103 94.5703 27.6 94.56C27.9967 94.9978 28.5593 95.2482 29.15 95.25H35.22C35.7928 95.2473 36.339 95.0085 36.73 94.59H41.22C41.7262 94.576 42.1984 94.3318 42.5022 93.9266C42.8061 93.5215 42.9084 92.9999 42.78 92.51Z" fill="black"/>
<path d="M39 88.11C40.2151 88.11 41.2 87.125 41.2 85.91V85.06C41.2002 84.5606 40.9985 84.0823 40.6406 83.7339C40.2828 83.3854 39.7993 83.1965 39.3 83.21H38.6C37.5783 83.21 36.75 84.0383 36.75 85.06V85.91C36.7499 86.5022 36.9885 87.0695 37.412 87.4836C37.8354 87.8976 38.4079 88.1235 39 88.11Z" fill="black"/>
<path d="M25.05 88.11C26.2651 88.11 27.25 87.125 27.25 85.91V85.06C27.25 84.0383 26.4218 83.21 25.4 83.21H24.7C23.6783 83.21 22.85 84.0383 22.85 85.06V85.91C22.85 87.125 23.835 88.11 25.05 88.11Z" fill="black"/>
<path fill-rule="evenodd" clip-rule="evenodd" d="M36.0002 28.76C35.9675 30.3933 34.6339 31.7003 33.0002 31.7C31.386 31.6734 30.0823 30.3741 30.0502 28.76V27.63C30.05 26.9644 30.3185 26.3268 30.7947 25.8619C31.271 25.3969 31.9148 25.1438 32.5802 25.16H33.5202C34.177 25.1573 34.8079 25.4164 35.2732 25.8799C35.7386 26.3434 36.0002 26.9731 36.0002 27.63V28.76ZM32.5502 26.63C31.9979 26.63 31.5502 27.0777 31.5502 27.63L31.5902 28.76C31.5902 29.5608 32.2394 30.21 33.0402 30.21C33.841 30.21 34.4902 29.5608 34.4902 28.76V27.63C34.4902 27.0777 34.0425 26.63 33.4902 26.63H32.5502Z" fill="black"/>
<path fill-rule="evenodd" clip-rule="evenodd" d="M43.4802 35.3L43.5902 36.86C43.7058 37.3482 43.5929 37.8625 43.2836 38.2575C42.9742 38.6525 42.5019 38.8852 42.0002 38.89H37.5102C37.1185 39.3075 36.5727 39.5461 36.0002 39.55H30.0002C29.3988 39.558 28.8231 39.3066 28.4202 38.86C28.3272 38.8703 28.2333 38.8703 28.1402 38.86H23.5502C23.0622 38.8416 22.6074 38.6079 22.3082 38.2219C22.0091 37.8359 21.8963 37.3372 22.0002 36.86L22.1502 35.3C22.2961 34.5556 22.9418 34.0141 23.7002 34H28.0002C28.1797 33.99 28.3595 34.0138 28.5302 34.07C28.9139 33.5907 29.4964 33.3142 30.1102 33.32H35.8902C36.4682 33.3178 37.0188 33.5658 37.4002 34C37.4699 33.9901 37.5406 33.9901 37.6102 34H41.9302C42.6886 34.0141 43.3343 34.5556 43.4802 35.3ZM37.5502 37.36H42.0802C42.1108 37.3011 42.1145 37.2318 42.0902 37.17V36.97L41.9902 35.55L41.9302 35.47H37.4002C36.9775 35.4715 36.574 35.2934 36.2902 34.98C36.191 34.8613 36.0449 34.7919 35.8902 34.79H30.1102C29.9427 34.7921 29.7849 34.8692 29.6802 35C29.3948 35.3388 28.9733 35.5331 28.5302 35.53C28.3488 35.5308 28.1689 35.4969 28.0002 35.43H23.7502C23.6902 35.43 23.6902 35.45 23.6902 35.51L23.5902 36.93V37.13C23.5628 37.1903 23.5628 37.2596 23.5902 37.32H28.1802C28.2867 37.3102 28.3938 37.3102 28.5002 37.32C28.9066 37.3275 29.2912 37.5053 29.5602 37.81C29.6706 37.9391 29.8304 38.0154 30.0002 38.02H36.0402C36.2103 38.0167 36.3707 37.9401 36.4802 37.81C36.7614 37.5215 37.1474 37.3592 37.5502 37.36Z" fill="black"/>
<path fill-rule="evenodd" clip-rule="evenodd" d="M41.9702 30.26C41.9702 31.475 40.9852 32.46 39.7702 32.46C39.185 32.4626 38.6229 32.232 38.2081 31.8192C37.7934 31.4063 37.5602 30.8452 37.5602 30.26V29.42C37.5602 28.9293 37.7551 28.4588 38.1021 28.1118C38.449 27.7649 38.9196 27.57 39.4102 27.57H40.1202C41.1419 27.57 41.9702 28.3982 41.9702 29.42V30.26ZM39.1627 29.2125C39.0971 29.2781 39.0602 29.3671 39.0602 29.46V30.3C39.1028 30.657 39.4056 30.9259 39.7652 30.9259C40.1248 30.9259 40.4276 30.657 40.4702 30.3V29.46C40.4702 29.2667 40.3135 29.11 40.1202 29.11H39.4102C39.3174 29.11 39.2284 29.1468 39.1627 29.2125Z" fill="black"/>
<path fill-rule="evenodd" clip-rule="evenodd" d="M27.4223 31.8192C27.0076 32.232 26.4454 32.4626 25.8602 32.46C25.2767 32.46 24.7172 32.2282 24.3046 31.8156C23.892 31.403 23.6602 30.8434 23.6602 30.26V29.42C23.6602 28.3982 24.4885 27.57 25.5102 27.57H26.2202C27.2419 27.57 28.0702 28.3982 28.0702 29.42V30.26C28.0702 30.8452 27.8371 31.4063 27.4223 31.8192ZM25.5102 29.11C25.3169 29.11 25.1602 29.2667 25.1602 29.46V30.3C25.2028 30.657 25.5056 30.9259 25.8652 30.9259C26.2248 30.9259 26.5276 30.657 26.5702 30.3V29.46C26.5702 29.2667 26.4135 29.11 26.2202 29.11H25.5102Z" fill="black"/>
</svg>
