<svg width="64" height="120" viewBox="0 0 64 120" fill="none" xmlns="http://www.w3.org/2000/svg">
<path fill-rule="evenodd" clip-rule="evenodd" d="M40.7399 82.8601L41.9999 91.2001C42.5099 94.8501 39.9999 98.1701 36.5999 98.2001H27.3399C23.9999 98.2001 21.4599 94.8501 21.9999 91.2001L23.2599 82.8601C23.559 80.1025 25.8285 77.9774 28.5999 77.8601H35.3999C38.1712 77.9774 40.4407 80.1025 40.7399 82.8601ZM28.0999 83.8101C28.1054 85.9617 29.8482 87.7046 31.9999 87.7101C34.1515 87.7046 35.8944 85.9617 35.8999 83.8101C35.8999 83.3959 35.5641 83.0601 35.1499 83.0601C34.7357 83.0601 34.3999 83.3959 34.3999 83.8101C34.3999 85.1356 33.3254 86.2101 31.9999 86.2101C30.6744 86.2101 29.5999 85.1356 29.5999 83.8101C29.5999 83.3959 29.2641 83.0601 28.8499 83.0601C28.4357 83.0601 28.0999 83.3959 28.0999 83.8101Z" fill="black"/>
<path fill-rule="evenodd" clip-rule="evenodd" d="M40.7399 26.8601L41.9999 35.2001C42.5099 38.8501 39.9999 42.1701 36.5999 42.2001H27.3399C23.9999 42.2001 21.4599 38.8501 21.9999 35.2001L23.2599 26.8601C23.559 24.1025 25.8285 21.9774 28.5999 21.8601H35.3999C38.1712 21.9774 40.4407 24.1025 40.7399 26.8601ZM36.6299 40.6701C37.7036 40.6546 38.7164 40.1683 39.3999 39.3401C40.3166 38.2544 40.7146 36.8231 40.4899 35.4201L39.2599 27.0801C39.0842 25.0444 37.4398 23.4468 35.3999 23.3301H28.5999C26.5599 23.4468 24.9155 25.0444 24.7399 27.0801L23.5099 35.4201C23.2852 36.8231 23.6832 38.2544 24.5999 39.3401C25.2834 40.1683 26.2961 40.6546 27.3699 40.6701H36.6299Z" fill="black"/>
<path d="M35.1499 27.0601C34.7357 27.0601 34.3999 27.3959 34.3999 27.8101C34.3999 29.1356 33.3254 30.2101 31.9999 30.2101C30.6744 30.2101 29.5999 29.1356 29.5999 27.8101C29.5999 27.3959 29.2641 27.0601 28.8499 27.0601C28.4357 27.0601 28.0999 27.3959 28.0999 27.8101C28.0999 29.2034 28.8432 30.4909 30.0499 31.1876C31.2565 31.8843 32.7432 31.8843 33.9499 31.1876C35.1565 30.4909 35.8999 29.2034 35.8999 27.8101C35.8945 27.3981 35.5618 27.0655 35.1499 27.0601Z" fill="black"/>
</svg>
