<svg width="65" height="120" viewBox="0 0 65 120" fill="none" xmlns="http://www.w3.org/2000/svg">
<path d="M34.4399 80.5368L35.0999 82.5368C35.3982 83.4624 36.2574 84.0917 37.2299 84.0968H39.3099C40.2854 84.0906 41.1528 84.7164 41.4544 85.6441C41.756 86.5718 41.4226 87.5881 40.6299 88.1568L38.9199 89.3968C38.1328 89.9682 37.802 90.9808 38.0999 91.9068L38.7599 93.9068C39.0864 94.8359 38.7677 95.8692 37.9746 96.4531C37.1816 97.037 36.1002 97.0344 35.3099 96.4468L33.6299 95.1968C32.8424 94.6262 31.7775 94.6262 30.9899 95.1968L29.3099 96.4468C28.5241 97.0219 27.4566 97.0235 26.6691 96.4505C25.8816 95.8776 25.5545 94.8615 25.8599 93.9368L26.5199 91.9368C26.8179 91.0108 26.4871 89.9982 25.6999 89.4268L23.9499 88.1668C23.1412 87.5969 22.8021 86.5641 23.1156 85.6258C23.4292 84.6875 24.3211 84.0659 25.3099 84.0968H27.3899C28.3571 84.0946 29.2147 83.4745 29.5199 82.5568L30.1799 80.5568C30.4758 79.633 31.3327 79.0046 32.3027 79C33.2727 78.9955 34.1354 79.6158 34.4399 80.5368Z" fill="black"/>
<path fill-rule="evenodd" clip-rule="evenodd" d="M30.1244 24.5502C30.4124 23.6186 31.2793 22.9877 32.2544 23.0002C33.2349 22.9903 34.1036 23.6306 34.3844 24.5702L35.0444 26.5702C35.3408 27.4958 36.2025 28.1229 37.1744 28.1202H39.2544C40.2492 28.0825 41.1495 28.7058 41.4643 29.6502C41.7791 30.5946 41.4328 31.6335 40.6144 32.2002L38.9044 33.4502C38.1162 34.0163 37.7846 35.0272 38.0844 35.9502L38.7444 37.9502C38.9712 38.6425 38.8487 39.4019 38.4157 39.9878C37.9827 40.5737 37.2928 40.9137 36.5644 40.9002C36.092 40.8966 35.6331 40.7425 35.2544 40.4602L33.6144 39.2102C32.8279 38.6365 31.7609 38.6365 30.9744 39.2102L29.2544 40.4602C28.8711 40.7686 28.3962 40.9409 27.9044 40.9502C27.1707 40.9563 26.4801 40.6042 26.054 40.0069C25.6279 39.4095 25.5198 38.642 25.7644 37.9502L26.4244 35.9502C26.7424 35.03 26.4266 34.0098 25.6444 33.4302L23.9344 32.1802C23.1418 31.6115 22.8083 30.5953 23.1099 29.6675C23.4115 28.7398 24.2789 28.114 25.2544 28.1202H27.3344C28.3117 28.1201 29.1751 27.4837 29.4644 26.5502L30.1244 24.5502ZM32.7844 25.0702C32.7229 24.8307 32.5013 24.6677 32.2544 24.6802C31.9952 24.6713 31.7691 24.8547 31.7244 25.1102L31.0644 27.1102C30.5399 28.7265 29.0337 29.8208 27.3344 29.8202H25.2144C24.9787 29.827 24.7726 29.9806 24.6987 30.2045C24.6248 30.4283 24.6991 30.6745 24.8844 30.8202L26.5944 32.0702C27.9737 33.0678 28.5515 34.8416 28.0244 36.4602L27.3644 38.4602C27.2996 38.6244 27.3262 38.8107 27.4344 38.9502C27.5466 39.1117 27.7279 39.2116 27.9244 39.2202C28.0444 39.2166 28.1601 39.1745 28.2544 39.1002L29.9444 37.8502C31.3218 36.8494 33.187 36.8494 34.5644 37.8502L36.2344 39.0402C36.3287 39.1145 36.4444 39.1566 36.5644 39.1602C36.752 39.148 36.9244 39.0526 37.0344 38.9002C37.1426 38.7607 37.1692 38.5744 37.1044 38.4102L36.4444 36.4102C35.9173 34.7916 36.4951 33.0178 37.8744 32.0202L39.5844 30.7802C39.7697 30.6345 39.8439 30.3883 39.7701 30.1645C39.6962 29.9406 39.49 29.787 39.2544 29.7802H37.1744C35.4751 29.7808 33.9689 28.6865 33.4444 27.0702L32.7844 25.0702Z" fill="black"/>
</svg>
