<svg width="65" height="120" viewBox="0 0 65 120" fill="none" xmlns="http://www.w3.org/2000/svg">
<path fill-rule="evenodd" clip-rule="evenodd" d="M38.75 81H36.08L34.87 79.68C34.4271 79.2446 33.8311 79.0004 33.21 79H30.29C29.6582 79.0053 29.0541 79.2606 28.61 79.71L27.42 81H24.75C24.3358 81 24 81.3358 24 81.75C24 82.1642 24.3358 82.5 24.75 82.5H38.75C39.1642 82.5 39.5 82.1642 39.5 81.75C39.5 81.3358 39.1642 81 38.75 81ZM29.69 80.74C29.8496 80.5814 30.065 80.4916 30.29 80.49H33.21C33.4257 80.4894 33.6334 80.5717 33.79 80.72L34.04 80.99H29.46L29.69 80.74Z" fill="black"/>
<path fill-rule="evenodd" clip-rule="evenodd" d="M24.23 85.52V93C24.23 95.4632 26.2268 97.46 28.69 97.46H34.81C37.2732 97.46 39.27 95.4632 39.27 93V85.52C39.27 84.4154 38.3746 83.52 37.27 83.52H26.27C25.7327 83.5093 25.2136 83.7152 24.8299 84.0915C24.4461 84.4677 24.2299 84.9826 24.23 85.52ZM29.5 89.05C29.5 89.4642 29.1642 89.8 28.75 89.8C28.3358 89.8 28 89.4642 28 89.05V86.68C28 86.2658 28.3358 85.93 28.75 85.93C29.1642 85.93 29.5 86.2658 29.5 86.68V89.05ZM31.75 93.75C32.1642 93.75 32.5 93.4142 32.5 93V86.68C32.5 86.2658 32.1642 85.93 31.75 85.93C31.3358 85.93 31 86.2658 31 86.68V93C31 93.4142 31.3358 93.75 31.75 93.75ZM35.5 89.05C35.5 89.4642 35.1642 89.8 34.75 89.8C34.3358 89.8 34 89.4642 34 89.05V86.68C34 86.2658 34.3358 85.93 34.75 85.93C35.1642 85.93 35.5 86.2658 35.5 86.68V89.05Z" fill="black"/>
<path d="M38.79 27C38.3537 27 38 27.3537 38 27.79V36.63C38 38.4912 36.4912 40 34.63 40H28.95C27.0888 40 25.58 38.4912 25.58 36.63V27.79C25.58 27.3537 25.2263 27 24.79 27C24.3537 27 24 27.3537 24 27.79V36.63C24.0274 39.3719 26.258 41.5801 29 41.58H34.68C37.4025 41.5529 39.6029 39.3525 39.63 36.63V27.79C39.6304 27.5715 39.5404 27.3626 39.3812 27.2129C39.2221 27.0633 39.008 26.9862 38.79 27Z" fill="black"/>
<path fill-rule="evenodd" clip-rule="evenodd" d="M38.79 25.58H24.79C24.3537 25.58 24 25.2263 24 24.79C24 24.3537 24.3537 24 24.79 24H27.44L28.62 22.72C29.0711 22.2614 29.6868 22.0022 30.33 22H33.25C33.8839 22 34.4918 22.2518 34.94 22.7L36.14 24H38.79C39.2263 24 39.58 24.3537 39.58 24.79C39.58 25.2263 39.2263 25.58 38.79 25.58ZM33.25 23.58H30.33C30.1301 23.5801 29.9374 23.655 29.79 23.79L29.6 23.99H33.98L33.79 23.79C33.6436 23.6533 33.4503 23.5781 33.25 23.58Z" fill="black"/>
<path d="M28.04 28.79V31.79C28.04 32.2042 28.3758 32.54 28.79 32.54C29.2042 32.54 29.54 32.2042 29.54 31.79V28.79C29.54 28.3758 29.2042 28.04 28.79 28.04C28.3758 28.04 28.04 28.3758 28.04 28.79Z" fill="black"/>
<path d="M31.04 28.79V36.79C31.04 37.2042 31.3758 37.54 31.79 37.54C32.2042 37.54 32.54 37.2042 32.54 36.79V28.79C32.54 28.3758 32.2042 28.04 31.79 28.04C31.3758 28.04 31.04 28.3758 31.04 28.79Z" fill="black"/>
<path d="M34.04 28.79V31.79C34.04 32.2042 34.3758 32.54 34.79 32.54C35.2042 32.54 35.54 32.2042 35.54 31.79V28.79C35.54 28.3758 35.2042 28.04 34.79 28.04C34.3758 28.04 34.04 28.3758 34.04 28.79Z" fill="black"/>
</svg>
