<svg width="65" height="120" viewBox="0 0 65 120" fill="none" xmlns="http://www.w3.org/2000/svg">
<path fill-rule="evenodd" clip-rule="evenodd" d="M42 91.8182C42 94.3286 39.9649 96.3636 37.4545 96.3636H26.5455C24.0351 96.3636 22 94.3286 22 91.8182V84.5455C22 82.0351 24.0351 80 26.5455 80H37.4545C39.9649 80 42 82.0351 42 84.5455V91.8182ZM42 89.2818V87.0818H37.4545C36.847 87.0818 36.3545 87.5743 36.3545 88.1818C36.3545 88.7893 36.847 89.2818 37.4545 89.2818H42Z" fill="black"/>
<path fill-rule="evenodd" clip-rule="evenodd" d="M42 35.8182C42 38.3286 39.9649 40.3636 37.4545 40.3636H26.5455C24.0351 40.3636 22 38.3286 22 35.8182V28.5455C22 26.0351 24.0351 24 26.5455 24H37.4545C39.9649 24 42 26.0351 42 28.5455V35.8182ZM26.5455 25.6273H37.4545C39.0662 25.6273 40.3727 26.9338 40.3727 28.5455V29.4545H37.4545C35.9483 29.4545 34.7273 30.6756 34.7273 32.1818C34.7273 33.688 35.9483 34.9091 37.4545 34.9091H40.3727V35.8182C40.3727 37.4298 39.0662 38.7364 37.4545 38.7364H26.5455C24.9338 38.7364 23.6273 37.4298 23.6273 35.8182V28.5455C23.6273 26.9338 24.9338 25.6273 26.5455 25.6273ZM40.3727 33.2818V31.0818H37.4545C36.847 31.0818 36.3545 31.5743 36.3545 32.1818C36.3545 32.7893 36.847 33.2818 37.4545 33.2818H40.3727Z" fill="black"/>
</svg>
